<svg xmlns="http://www.w3.org/2000/svg" viewBox="0 0 43.57 43.57"><defs><style>.cls-1{fill:#efefef;}</style></defs><title>Asset 8</title><g id="Layer_2" data-name="Layer 2"><g id="Module_1_desktop_interface_standard_layout" data-name="Module 1 desktop interface &amp; standard layout"><path class="cls-1" d="M21.79,43.57A21.79,21.79,0,1,1,43.57,21.79,21.81,21.81,0,0,1,21.79,43.57Zm0-41.68a19.9,19.9,0,1,0,19.89,19.9A19.93,19.93,0,0,0,21.79,1.89Z"/><path class="cls-1" d="M29.51,14.39V29.88a.8.8,0,0,1-1.19.7l-14-7.74a.81.81,0,0,1,0-1.41l14-7.74A.8.8,0,0,1,29.51,14.39Z"/><path class="cls-1" d="M11.48,13.59V30.45c0,2.71,4.22,2.71,4.22,0V13.59c0-2.71-4.22-2.72-4.22,0Z"/></g></g></svg>