<?xml version="1.0" encoding="utf-8"?>
<!-- Generator: Adobe Illustrator 23.0.3, SVG Export Plug-In . SVG Version: 6.00 Build 0)  -->
<svg version="1.1" id="Layer_1" xmlns="http://www.w3.org/2000/svg" xmlns:xlink="http://www.w3.org/1999/xlink" x="0px" y="0px"
	 viewBox="0 0 512 512" style="enable-background:new 0 0 512 512;" xml:space="preserve">
<style type="text/css">
	.st0{fill:#FFFFFF;}
</style>
<path class="st0" d="M320,255.4c0,35.3-28.7,64-64,64s-64-28.7-64-64s28.7-64,64-64S320,220.1,320,255.4z"/>
<path class="st0" d="M504.1,238.7l-106.7-85.3c-0.6-0.5-1.2-0.9-1.8-1.3c-14.7-8.7-32.9,2.2-32.9,18.1v170.7
	c0,11.8,9.6,21.3,21.3,21.3c4,0,7.8-1.1,11.6-3.3c0.6-0.4,1.3-0.8,1.8-1.3l108-86.6c4.2-4.3,6.6-9.8,6.6-15.5
	S509.7,244.2,504.1,238.7z"/>
<path class="st0" d="M116.4,152.1c-0.6,0.4-1.3,0.8-1.8,1.3l-108,86.6c-4.2,4.3-6.6,9.8-6.6,15.5s2.3,11.3,7.9,16.8l106.7,85.3
	c0.6,0.5,1.2,0.9,1.8,1.3c3.8,2.2,7.6,3.3,11.6,3.3c11.8,0,21.3-9.6,21.3-21.3V170.1C149.3,154.3,131.1,143.4,116.4,152.1z"/>
</svg>
