<svg x="0px" y="0px" viewBox="0 0 508.82 508.82" style="enable-background:new 0 0 508.82 508.82;" xmlns="http://www.w3.org/2000/svg">

 <g>
  <title>background</title>
  <rect fill="none" id="canvas_background" height="402" width="582" y="-1" x="-1"/>
 </g>
 <g>
  <title>Layer 1</title>
  <g transform="rotate(180 199,201) " id="svg_1">
   <g id="svg_2">
    <path id="svg_3" d="m198.997,1c-110.277,0 -199.997,89.72 -199.997,200s89.72,200 199.997,200c110.282,0 200.003,-89.72 200.003,-200s-89.721,-200 -200.003,-200zm0,373.77c-95.811,0 -173.766,-77.953 -173.766,-173.77c0,-95.817 77.955,-173.77 173.766,-173.77c95.824,0 173.772,77.953 173.772,173.77c0.001,95.816 -77.949,173.77 -173.772,173.77z"/>
    <path id="svg_4" d="m240.559,110.851c-5.123,-5.124 -13.43,-5.124 -18.547,0l-80.875,80.873c-2.46,2.459 -3.843,5.796 -3.843,9.273c0,3.478 1.383,6.813 3.843,9.272l80.875,80.875c2.562,2.562 5.918,3.844 9.273,3.844c3.354,0 6.719,-1.281 9.272,-3.844c5.123,-5.119 5.123,-13.426 0,-18.545l-71.597,-71.604l71.597,-71.6c5.125,-5.118 5.125,-13.424 0.002,-18.544z"/>
   </g>
  </g>
  <g id="svg_5"/>
  <g id="svg_6"/>
  <g id="svg_7"/>
  <g id="svg_8"/>
  <g id="svg_9"/>
  <g id="svg_10"/>
  <g id="svg_11"/>
  <g id="svg_12"/>
  <g id="svg_13"/>
  <g id="svg_14"/>
  <g id="svg_15"/>
  <g id="svg_16"/>
  <g id="svg_17"/>
  <g id="svg_18"/>
  <g transform="rotate(180 0,0) " id="svg_19"/>
 </g>
</svg>