<svg xmlns="http://www.w3.org/2000/svg" viewBox="0 0 43.57 43.57"><defs><style>.cls-1{fill:#efefef;}</style></defs><title>Asset 7</title><g id="Layer_2" data-name="Layer 2"><g id="Module_1_desktop_interface_standard_layout" data-name="Module 1 desktop interface &amp; standard layout"><path class="cls-1" d="M21.69,7l.12,6.32a.37.37,0,0,0,.54.31L28,10.33a.36.36,0,0,0,0-.63l-5.75-3A.36.36,0,0,0,21.69,7Z"/><path class="cls-1" d="M21.79,43.57A21.79,21.79,0,1,1,43.57,21.79,21.81,21.81,0,0,1,21.79,43.57Zm0-41.68a19.9,19.9,0,1,0,19.89,19.9A19.93,19.93,0,0,0,21.79,1.89Z"/><path class="cls-1" d="M32.2,22.25c-.49,9.27-11.56,14.7-18.57,7.69S12,11.87,21.32,11.37c1.35-.08,1.35-2.18,0-2.11-11.08.6-17.51,13.84-9.18,22.17s21.58,1.9,22.17-9.18c.08-1.35-2-1.35-2.11,0Z"/></g></g></svg>